<?xml version="1.0" encoding="UTF-8" standalone="no"?>
<svg
   version="1.0"
   width="155.000000pt"
   height="126.000000pt"
   viewBox="0 0 155.000000 126.000000"
   preserveAspectRatio="xMidYMid meet"
   id="svg1107"
   sodipodi:docname="Raft-logo.svg"
   inkscape:version="1.2.2 (732a01da63, 2022-12-09)"
   xmlns:inkscape="http://www.inkscape.org/namespaces/inkscape"
   xmlns:sodipodi="http://sodipodi.sourceforge.net/DTD/sodipodi-0.dtd"
   xmlns="http://www.w3.org/2000/svg"
   xmlns:svg="http://www.w3.org/2000/svg">
  <defs
     id="defs1111" />
  <sodipodi:namedview
     id="namedview1109"
     pagecolor="#ffffff"
     bordercolor="#000000"
     borderopacity="0.25"
     inkscape:showpageshadow="2"
     inkscape:pageopacity="0.0"
     inkscape:pagecheckerboard="0"
     inkscape:deskcolor="#d1d1d1"
     inkscape:document-units="pt"
     showgrid="false"
     inkscape:zoom="3.5144891"
     inkscape:cx="167.30739"
     inkscape:cy="83.511428"
     inkscape:window-width="1920"
     inkscape:window-height="1051"
     inkscape:window-x="-9"
     inkscape:window-y="-9"
     inkscape:window-maximized="1"
     inkscape:current-layer="svg1107" />
  <path
     style="fill:#ffccaa;stroke-width:0.201198"
     d="m 168,139.76423 c -1.36734,-0.15427 -1.34672,-0.67797 0.1285,-3.26226 1.59791,-2.79924 1.66379,-3.34527 1.67378,-13.87203 0.008,-8.47812 -0.36403,-27.510591 -0.61655,-31.537724 l -0.1167,-1.861078 H 160.13452 151.2 v -6.529019 c 0,-8.967597 0.0709,-9.217872 2.48636,-8.772932 2.65767,0.489561 7.71243,0.648161 24.02142,0.753706 l 16.9509,0.109699 v 7.143824 7.143824 l -0.57788,-0.115576 c -0.31783,-0.06357 -3.47598,-0.179325 -7.01811,-0.25724 l -6.44023,-0.141663 -0.1303,1.791371 c -0.5541,7.617585 -1.16708,21.589518 -1.18197,26.941068 -0.0186,6.67251 0.13721,8.66767 0.95823,12.27306 1.24214,5.45468 0.279,7.64442 -3.97281,9.03235 -1.87642,0.61253 -6.91077,1.31687 -8.29561,1.16062 z"
     id="path1806"
     transform="scale(0.75)" />
  <path
     style="fill:#ffccaa;stroke-width:0.201198"
     d="m 165.37925,156.67889 c 0.0595,-0.52357 0.19852,-1.83354 0.30882,-2.91104 0.31663,-3.09306 1.05522,-4.37863 2.51563,-4.37863 1.19771,0 1.23198,-0.42902 0.13914,-1.7422 -1.22486,-1.47181 -1.44943,-1.88975 -1.44943,-2.69746 0,-0.82377 1.00972,-1.81552 2.21653,-2.17709 1.30846,-0.39203 5.43324,-0.83386 8.14515,-0.87249 3.41008,-0.0486 4.41636,0.37877 4.01447,1.70481 -0.1887,0.62261 -1.54804,2.42345 -2.92354,3.87305 -1.38764,1.46242 -2.19752,2.63308 -2.19752,3.17646 0,0.23314 0.48046,0.84775 1.13552,1.45256 0.98454,0.90903 1.11779,1.11901 1.00225,1.57938 -0.3091,1.23153 -3.02611,2.26068 -8.31702,3.15034 -1.96836,0.33098 -3.83071,0.64509 -4.13856,0.69802 -0.55844,0.096 -0.55948,0.0941 -0.45144,-0.85571 z"
     id="path1808"
     transform="scale(0.75)" />
  <path
     style="fill:#ffccaa;stroke-width:0.201198"
     d="m 168.80479,163.01651 c -1.15607,-0.47432 -1.54489,-0.78743 -1.83243,-1.47562 -0.53758,-1.28662 0.29353,-1.85946 3.3452,-2.30568 1.80694,-0.26421 6.96224,-0.1558 7.82009,0.16444 0.45362,0.16935 0.39071,0.24665 -1.13806,1.39862 -2.47631,1.86595 -3.60191,2.33452 -5.78043,2.40626 -1.10959,0.0365 -2.04451,-0.0363 -2.41437,-0.18802 z"
     id="path1810"
     transform="scale(0.75)" />
  <path
     style="fill:#ffccaa;stroke-width:0.201198"
     d="m 120.41677,158.95089 c -3.17118,-0.91428 -7.28264,-3.72066 -8.68651,-5.9292 -0.41947,-0.6599 -0.56858,-1.14614 -0.56858,-1.85408 0,-1.28977 0.77518,-2.16028 2.85485,-3.20592 2.04834,-1.02989 3.18107,-2.03807 3.18107,-2.8313 0,-0.79508 -0.75441,-1.08714 -3.1937,-1.23639 -3.13541,-0.19185 -4.64666,-1.2136 -5.26358,-3.55867 -0.33009,-1.25476 -0.12223,-2.89862 0.74017,-5.85379 0.65112,-2.23115 0.7298,-2.75202 0.74173,-4.91028 0.01,-1.81159 -0.0922,-2.84135 -0.40925,-4.12455 -0.80129,-3.24277 -1.11098,-7.10024 -1.48605,-18.51018 -0.25867,-7.868817 -0.13709,-23.496413 0.20628,-26.516308 0.26666,-2.34521 0.55669,-2.927393 1.6685,-3.349301 1.88749,-0.716257 2.95494,-0.76257 19.72165,-0.855663 l 16.64911,-0.09244 v 7.258351 7.258351 h -13.37965 -13.37964 v 7.343713 7.343717 h 9.25509 c 5.0903,0 9.25509,0.0457 9.25509,0.10161 0,0.0559 0.27872,2.342 0.61936,5.08024 0.71136,5.71811 0.86769,9.91933 0.38663,10.38987 -0.41292,0.40389 -3.08496,0.87819 -6.93876,1.23165 -5.29237,0.48541 -9.0616,1.22137 -9.99588,1.95174 -0.42868,0.33512 -2.78698,7.76813 -2.92587,9.22195 -0.20204,2.11466 0.74649,3.1774 5.2434,5.87473 2.61284,1.56722 4.64598,3.33228 4.86653,4.22485 0.46214,1.87025 -1.53834,3.52794 -6.59672,5.46634 -1.07893,0.41345 -1.96168,0.81606 -1.96168,0.8947 0,0.0786 0.42598,0.49905 0.94662,0.93425 1.78937,1.49572 4.91859,4.60399 5.21807,5.18313 0.26702,0.51636 0.26571,0.63185 -0.012,1.05566 -0.38822,0.59249 -1.97457,1.69779 -2.92405,2.03734 -0.90612,0.32405 -2.66298,0.31299 -3.83225,-0.0241 z"
     id="path1812"
     transform="scale(0.75)" />
  <path
     style="fill:#ffccaa;stroke-width:0.201198"
     d="m 117.95197,165.00984 c -2.61266,-0.73108 -2.28029,-2.61073 0.6171,-3.48988 1.60204,-0.48611 4.70716,-0.48013 5.70519,0.011 1.21778,0.59925 1.18377,1.25142 -0.117,2.24357 -1.49325,1.13895 -4.44776,1.72713 -6.20529,1.23533 z"
     id="path1814"
     transform="scale(0.75)" />
  <path
     style="fill:#ffccaa;stroke-width:0.201198"
     d="m 93.476381,160.64663 c -0.818886,-0.21445 -1.875117,-0.61625 -2.347179,-0.8929 -1.594302,-0.93432 -3.062994,-3.06432 -2.809461,-4.07448 0.15702,-0.62562 1.11526,-1.55302 2.150225,-2.08102 3.438986,-1.75444 3.675158,-4.38823 0.647462,-7.22049 -2.239145,-2.09461 -3.934898,-2.31174 -12.650362,-1.61981 -8.085215,0.6419 -8.864007,0.50377 -11.484204,-2.0369 -2.458676,-2.38404 -2.872596,-3.73339 -2.213063,-7.21444 0.38043,-2.00793 1.198488,-8.43152 1.832041,-14.38563 0.610745,-5.73977 1.233836,-10.20856 2.306802,-16.54433 0.960921,-5.674155 5.044603,-26.651086 5.230794,-26.869379 0.238937,-0.280134 5.069543,-0.745647 7.747989,-0.746653 3.390622,-0.0013 6.941318,0.569463 6.941318,1.115744 0,0.05396 0.675164,2.69904 1.500368,5.877951 3.693534,14.228531 6.829585,28.249707 8.259766,36.929147 0.815552,4.94939 1.101387,7.53231 1.30512,11.79354 0.265423,5.55151 0.777733,8.31487 2.128543,11.4811 0.79791,1.87028 0.91717,4.32397 0.28193,5.80063 -0.50735,1.17937 -1.14594,1.72375 -2.26048,1.92701 -1.772947,0.32333 -2.003942,3.01091 -0.325031,3.78163 0.373251,0.17134 1.491991,0.37017 2.486081,0.44185 3.02435,0.21804 4.3469,1.1966 3.38198,2.50233 -0.54801,0.74157 -2.69823,1.79403 -4.38462,2.14612 -2.054588,0.42896 -5.873577,0.37408 -7.726019,-0.11102 z M 87.842892,130.4744 c 1.078136,-0.29949 1.450637,-0.83051 1.550437,-2.21022 0.198274,-2.74112 -2.007268,-12.04942 -4.78168,-20.18065 -1.367524,-4.00794 -1.952242,-5.11803 -2.439279,-4.63099 -0.691382,0.69138 -4.514141,23.01016 -4.368348,25.50414 0.05481,0.93757 0.114429,1.04444 0.763643,1.36876 0.598348,0.2989 1.293887,0.35166 4.627545,0.35097 2.157844,-4e-4 4.249301,-0.0914 4.647682,-0.20201 z"
     id="path1816"
     transform="scale(0.75)" />
  <path
     style="fill:#ffccaa;stroke-width:0.201198"
     d="m 95.468263,167.42042 c -1.58321,-0.34917 -3.017964,-1.22329 -3.017964,-1.83868 0,-0.45587 0.805454,-0.95572 2.133409,-1.32395 1.402061,-0.38878 10.449362,-1.34688 10.666652,-1.12959 0.26612,0.26612 -0.17431,1.21255 -0.96186,2.06694 -1.85751,2.01517 -5.549526,2.94664 -8.820237,2.22528 z"
     id="path1818"
     transform="scale(0.75)" />
  <path
     style="fill:#ffccaa;stroke-width:0.201198"
     d="m 72.028743,165.15107 c -1.41772,-0.17022 -3.501154,-0.76098 -4.555631,-1.29175 -0.896518,-0.45126 -5.2816,-3.80663 -4.974826,-3.80663 0.04123,0 1.025445,0.18219 2.187143,0.40486 3.965546,0.76009 4.694212,0.58753 4.694212,-1.11166 0,-1.2084 -0.630699,-1.8792 -2.004454,-2.13191 -0.538988,-0.0991 -1.523211,-0.44699 -2.187163,-0.77297 -1.438061,-0.70604 -3.59132,-2.39645 -3.687268,-2.89467 -0.03752,-0.19484 0.324069,-0.85498 0.803535,-1.46699 2.181533,-2.78458 2.169629,-2.76483 2.174662,-3.6096 0.0039,-0.64904 -0.141175,-0.98951 -0.699312,-1.64157 -1.018348,-1.18971 -0.947107,-1.34079 0.553293,-1.17339 1.937145,0.21613 11.40793,2.11526 12.200893,2.44658 1.552332,0.6486 2.495347,1.78367 1.825713,2.19752 -0.114468,0.0708 -0.816145,0.21438 -1.559281,0.31919 -1.644807,0.23197 -3.708485,1.16028 -4.18036,1.88045 -0.526312,0.80325 -0.14961,1.7128 1.624523,3.92244 2.361524,2.94122 3.518452,5.05744 3.518452,6.43585 0,0.6085 -0.5385,1.27299 -1.387369,1.71195 -0.556332,0.28769 -2.837443,0.74068 -3.441373,0.6834 -0.165988,-0.0157 -0.573413,-0.0612 -0.905389,-0.1011 z"
     id="path1822"
     transform="scale(0.75)" />
  <path
     style="fill:#ffccaa;stroke-width:0.201198"
     d="m 21.999641,157.45394 c -4.036683,-1.08918 -7.465516,-3.12504 -7.116311,-4.22529 0.198646,-0.62588 1.09852,-1.00066 2.756267,-1.14795 0.810797,-0.072 1.632619,-0.21231 1.826271,-0.31172 0.424536,-0.21793 0.455633,-0.99343 0.06961,-1.73586 -0.3164,-0.60852 -2.610237,-2.85831 -4.445656,-4.36028 -3.027276,-2.4773 -4.728143,-4.45565 -4.728143,-5.49951 0,-0.83647 1.457211,-1.4326 3.526489,-1.44266 1.358543,-0.007 1.905846,-0.40513 1.905846,-1.38776 0,-0.41603 -0.313838,-2.15377 -0.697418,-3.86164 -2.08677,-9.29125 -2.670007,-17.77127 -2.860843,-41.595495 l -0.1262,-15.754943 19.094926,0.07121 c 16.683977,0.06222 19.23089,0.1114 20.171786,0.38949 1.768815,0.522789 1.861402,0.698306 2.06639,3.917299 0.802438,12.600892 1.410429,19.976659 1.991746,24.162659 0.218864,1.57603 0.397936,2.95675 0.397936,3.06827 0,0.12981 -1.538113,0.20317 -4.275449,0.20392 -4.688051,0.001 -6.47274,0.19533 -7.043222,0.76581 -0.362393,0.36239 -0.350806,0.4584 0.431392,3.57516 1.987521,7.91951 2.729853,11.85493 2.60526,13.81162 -0.07122,1.11842 -0.178298,1.40883 -0.804354,2.18139 -1.052159,1.29838 -1.375902,2.05166 -1.375902,3.20145 0,1.99152 1.187993,3.74744 4.203627,6.21317 3.737296,3.0558 5.211469,5.10805 4.647404,6.46982 -0.325804,0.78656 -1.437342,1.42395 -3.635205,2.08453 -3.396891,1.02097 -3.290747,2.04214 0.60573,5.82745 3.124669,3.03553 2.377991,3.84527 -3.407185,3.69492 -2.563511,-0.0666 -3.333422,-0.15918 -4.325748,-0.52003 -1.625009,-0.59093 -2.98827,-1.52657 -4.628056,-3.17636 -2.661949,-2.67818 -2.69492,-3.02354 -0.584109,-6.11851 3.309483,-4.85252 3.297842,-5.82422 -0.126358,-10.54811 -1.533251,-2.11521 -2.656511,-4.27087 -2.998519,-5.75449 -0.112212,-0.48677 -0.206233,-1.92893 -0.208937,-3.20481 -0.01143,-5.38717 -1.703009,-14.05662 -3.273163,-16.77508 -0.784418,-1.35809 -1.324931,-1.6188 -3.523385,-1.69949 -2.504919,-0.0919 -3.403174,0.16503 -3.786839,1.08327 -0.621733,1.48801 -0.199714,7.20157 0.757449,10.25479 0.540109,1.72288 0.579102,4.2571 0.09332,6.06497 -0.877772,3.26667 -0.218606,5.69867 3.155004,11.64042 0.502639,0.88527 0.851671,1.66788 0.775627,1.73913 -0.07604,0.0712 -0.922744,0.36606 -1.881557,0.65512 -2.1128,0.63696 -4.9155,1.80045 -5.59486,2.3226 -0.483065,0.37127 -0.4882,0.40167 -0.1777,1.0519 0.175857,0.36826 1.236596,1.84658 2.357199,3.28514 2.3537,3.02154 3.311283,4.71662 3.763666,6.66231 0.496461,2.13527 0.02724,3.97726 -1.204475,4.72836 -0.796789,0.48588 -2.558915,0.48339 -4.373348,-0.006 z M 41.445119,95.568862 c 1.051131,-0.526604 1.303441,-1.091325 1.303441,-2.917365 0,-1.82604 -0.25231,-2.390761 -1.303441,-2.917365 -0.756702,-0.379099 -1.205069,-0.402395 -7.74452,-0.402395 -7.423885,0 -8.25724,0.09045 -9.161067,0.994272 -0.557902,0.557903 -0.872917,1.576525 -1.030278,3.331476 -0.10267,1.145019 -0.06659,1.353343 0.28986,1.673836 0.682867,0.613974 2.071348,0.711617 9.599688,0.675085 6.801872,-0.03301 7.292043,-0.05966 8.046317,-0.437544 z"
     id="path1824"
     transform="scale(0.75)" />
  <path
     style="fill:#ffccaa;stroke-width:0.201198"
     d="m 45.412035,163.38019 c -2.409872,-0.54764 -4.848488,-1.94001 -5.871736,-3.35256 -0.759183,-1.04803 -0.976315,-2.27418 -0.496589,-2.80427 0.461533,-0.50999 0.973487,-0.49203 3.509583,0.1231 2.826848,0.68565 4.909681,0.86366 7.409584,0.63324 2.306157,-0.21255 2.967811,-0.0454 3.180863,0.80344 0.33563,1.33725 -0.978981,3.48191 -2.621783,4.27718 -1.177679,0.5701 -3.397358,0.70905 -5.109922,0.31987 z"
     id="path1826"
     transform="scale(0.75)" />
  <path
     style="fill:#ffccaa;stroke-width:0.201198"
     d="M 20.522156,163.09288 C 19.60307,162.6688 16.8,159.86039 16.8,159.36363 c 0,-0.82295 1.615367,-0.56847 5.231138,0.82411 2.654094,1.02219 3.026923,1.2802 2.598285,1.7981 -0.324303,0.39183 -2.544982,1.48907 -3.00068,1.48264 -0.165989,-0.002 -0.663953,-0.17137 -1.106587,-0.3756 z"
     id="path1828"
     transform="scale(0.75)" />
  <path
     style="fill:#ffccaa;stroke-width:0.201198"
     d="m 130.37605,67.585153 c -1.73512,-0.251228 -3.73099,-0.858128 -6.53892,-1.98835 -1.71521,-0.690387 -3.60457,-1.370636 -4.19857,-1.511664 -1.83474,-0.435603 -4.45845,-0.164696 -9.38227,0.968747 -7.31046,1.682836 -10.85061,2.193379 -16.498206,2.379294 -6.292632,0.207149 -10.215378,-0.361045 -15.391617,-2.229416 -4.07672,-1.471497 -4.713939,-1.627961 -6.538922,-1.605589 -1.397267,0.01712 -2.047477,0.168718 -4.929341,1.149216 -5.633085,1.916546 -4.443856,1.835415 -27.061078,1.846151 -10.844551,0.0052 -21.347066,0.06949 -23.338922,0.142989 -1.991857,0.0735 -3.349941,0.09366 -3.017964,0.04481 0.331976,-0.04885 2.414371,-0.320612 4.627544,-0.603911 6.049056,-0.774311 6.696205,-1.037771 7.12533,-2.90078 0.1147,-0.497964 0.210759,-2.590291 0.213465,-4.649613 l 0.0049,-3.744223 7.796407,-0.114471 c 8.097813,-0.1189 9.528377,-0.262106 9.989614,-1.000016 0.17005,-0.272058 0.140394,-0.481305 -0.128322,-0.90539 -0.735031,-1.160023 -1.376714,-2.65849 -1.794765,-4.191155 -0.632048,-2.317223 -0.629833,-7.512304 0.0042,-9.840641 0.815997,-2.996583 2.683282,-6.154446 4.011786,-6.784544 0.940027,-0.445848 1.273673,-1.487764 1.455445,-4.545087 0.190888,-3.210663 0.435752,-4.453052 1.102279,-5.592726 0.887161,-1.516929 2.447754,-2.072536 4.736856,-1.686428 2.187473,0.368964 3.147535,1.195518 3.411891,2.937427 0.241457,1.591032 -0.434042,4.537503 -1.563227,6.818663 -0.599442,1.21098 -1.006441,1.699052 -1.608983,1.929487 -0.498387,0.190603 -0.577617,0.694772 -0.229311,1.45922 0.473176,1.038508 2.224253,1.332854 5.057769,0.850179 4.269717,-0.727324 4.816721,0.128424 5.585664,8.73836 0.654718,7.330944 1.183284,9.140208 3.008872,10.299275 2.050562,1.301903 4.345963,1.477583 15.499161,1.186239 4.813653,-0.125745 9.204791,-0.276134 9.758084,-0.334202 l 1.005988,-0.105576 4.871389,-8.69173 c 8.092524,-14.439015 8.682434,-15.653242 8.852174,-18.220558 0.0906,-1.369977 0.0239,-1.777597 -0.61358,-3.750215 -0.98853,-3.059004 -1.23514,-4.604926 -0.89866,-5.633533 0.49334,-1.508131 1.49014,-1.038532 3.71531,1.750306 1.75462,2.199093 2.08129,2.212989 3.01683,0.128325 0.57145,-1.273347 1.50273,-2.235553 1.9847,-2.050603 0.624,0.23945 0.76128,1.473989 0.40977,3.684969 -0.18208,1.145267 -0.2728,2.362523 -0.20159,2.705013 0.43079,2.072088 3.06164,4.318518 7.53573,6.434599 3.59132,1.698559 7.38476,2.53781 11.47099,2.53781 6.18446,0 11.39486,-2.105768 12.35959,-4.99509 0.43666,-1.307763 0.98606,-2.074903 1.74723,-2.439676 1.19061,-0.570574 1.88521,-2.502518 5.28406,-14.69697 2.0732,-7.4382368 2.73814,-9.4562876 3.1158,-9.4562876 0.1057,0 0.34666,0.4753294 0.53546,1.0562875 0.49915,1.5359042 1.50547,3.1073064 3.16679,4.9450675 1.84412,2.0399612 2.81414,3.6711546 3.55011,5.9699026 0.79683,2.488821 1.10858,5.230513 0.9478,8.335305 -0.15227,2.940426 -0.59878,5.356522 -1.72476,9.332643 -1.20852,4.267572 -1.66194,6.344972 -1.52298,6.977658 0.12481,0.568269 0.1907,0.609011 2.01222,1.244347 0.57985,0.202248 0.82338,0.409892 0.87131,0.742914 0.0391,0.271838 -0.56042,1.762936 -1.45564,3.620297 -1.455,3.018737 -2.33304,5.629101 -2.33304,6.935992 0,0.334085 0.10871,0.908045 0.24157,1.27547 0.3586,0.991697 0.03,1.209678 -1.08193,0.717799 -1.45575,-0.643943 -2.37438,-2.084218 -2.37767,-3.72781 -0.003,-1.45586 -0.81239,-2.296968 -2.04294,-2.122787 -0.41928,0.05935 -0.47155,0.170068 -0.45906,0.972364 0.008,0.521693 0.34115,1.789733 0.78583,2.992132 0.8793,2.377624 1.72776,3.45639 3.02283,3.843331 0.44324,0.132434 2.66808,0.289827 4.95242,0.350353 l 4.14763,0.109896 0.11089,3.846756 c 0.11746,4.074756 0.3957,5.696113 1.09805,6.398464 0.50448,0.504477 1.3216,0.573842 16.14849,1.370832 6.25222,0.336074 11.59401,0.64815 11.87066,0.6935 0.76351,0.125161 -11.76317,-0.07496 -24.9485,-0.398577 -17.78196,-0.436428 -21.51148,-0.374115 -30.98443,0.517702 -2.42469,0.228268 -8.45951,0.407286 -9.35569,0.27753 z M 98.969478,53.799823 c 1.727782,-1.921717 3.909392,-5.969913 5.432652,-10.080857 0.7004,-1.890219 0.919,-3.177649 0.53956,-3.177649 -0.80817,0 -7.662648,12.039812 -7.662648,13.459339 0,1.165979 0.51675,1.104585 1.690436,-0.200833 z m 50.586692,-0.202654 c 1.09618,-0.233414 2.11819,-0.501984 2.27113,-0.596823 0.2276,-0.141128 0.13908,-0.584612 -0.48759,-2.442677 -1.11489,-3.305659 -2.27397,-6.175312 -2.67183,-6.614945 -0.59469,-0.657118 -1.06923,-0.480219 -1.53509,0.572246 -0.44703,1.009936 -1.76347,7.148312 -1.76602,8.23473 -0.003,1.36847 0.89209,1.54958 4.1894,0.847469 z m 3.54599,-11.632558 c 0.0633,-0.10246 0.11878,-1.392639 0.12322,-2.867066 0.009,-2.990059 -0.32187,-4.563823 -1.06972,-5.087639 -0.55104,-0.385957 -0.64972,-0.385308 -1.04189,0.0069 -0.75005,0.750052 -0.18095,4.814198 1.00066,7.145977 0.48857,0.964157 0.75417,1.179777 0.98773,0.801867 z"
     id="path1830"
     transform="scale(0.75)" />
</svg>
